# xmcd CD database file
#
# Track frame offsets:
#	150
#	10315
#	23727
#	33887
#	45028
#	55708
#	68644
#	84464
#	103597
#	118580
#	126191
#	136334
#	138918
#	152888
#	155478
#	165694
#	168746
#	186064
#
# Disc length: 2685 seconds
#
# Revision: 1
# Processed by: cddbd v1.5.2PL0 Copyright (c) Steve Scherf et al.
# Submitted via: CDex 1.70beta2
#
DISCID=e00a7b12
DTITLE=Sledě. Živé sledě. - Miláček vytváří krajinu
DYEAR=1998
DGENRE=Alternative
TTITLE0=Ismael budí spáče
TTITLE1=Automobily
TTITLE2=Niagara
TTITLE3=Nesení Písma
TTITLE4=Rozpočítadlo
TTITLE5=Zeměkoule
TTITLE6=Could I?
TTITLE7=V sedlech pelikánů
TTITLE8=Miláček vytváří krajinu
TTITLE9=Napni luk
TTITLE10=Spěch jde zemí
TTITLE11=Ženy...
TTITLE12=Lišky jdou ebonitem
TTITLE13=pečou...
TTITLE14=Koblížek
TTITLE15=nádobí
TTITLE16=Pluje kopec medem
TTITLE17=Oblouk
EXTD=YEAR: 1998
EXTT0=
EXTT1=
EXTT2=
EXTT3=
EXTT4=
EXTT5=
EXTT6=
EXTT7=
EXTT8=
EXTT9=
EXTT10=
EXTT11=
EXTT12=
EXTT13=
EXTT14=
EXTT15=
EXTT16=
EXTT17=
PLAYORDER=
